<svg width="70" height="70" viewBox="0 0 70 70" fill="none" xmlns="http://www.w3.org/2000/svg">
<path d="M42.3345 25.8694L39.8118 25.502C39.7345 25.502 39.6571 25.502 39.6571 25.5792L38.5891 26.9494C38.5281 27.0388 38.5007 27.1468 38.5118 27.2543C38.5118 27.3315 38.4344 27.4858 38.3608 27.4086L37.5174 27.1809C37.3664 27.1809 37.2117 27.1809 37.1491 27.3315L33.7094 31.7398C33.632 31.8169 33.5547 31.8169 33.4037 31.8169L32.1037 31.2071C32.0485 31.1725 31.9847 31.1542 31.9195 31.1542C31.8544 31.1542 31.7906 31.1725 31.7354 31.2071L31.0136 31.67C30.9587 31.7054 30.8948 31.7242 30.8294 31.7242C30.7641 31.7242 30.7001 31.7054 30.6453 31.67L30.3396 31.5194C30.2899 31.4969 30.236 31.4851 30.1813 31.4845C30.1267 31.484 30.0726 31.4947 30.0224 31.5161C29.9722 31.5376 29.927 31.5691 29.8897 31.6089C29.8523 31.6487 29.8237 31.6957 29.8056 31.7471L29.5736 32.8125C29.546 32.9256 29.5535 33.0444 29.5949 33.1532C29.6363 33.2621 29.7097 33.3559 29.8056 33.4223L30.417 33.7896L32.019 34.7815L32.785 35.237C32.8925 35.3 33.0175 35.3269 33.1415 35.3136C33.2655 35.3004 33.3819 35.2478 33.4737 35.1636L34.77 34.0174C34.8817 33.954 35.0108 33.9282 35.1383 33.9439L35.5066 34.1717C35.6576 34.2488 35.8123 34.2488 35.8749 34.0945L36.5599 33.4847C36.607 33.4374 36.667 33.4049 36.7324 33.3912C36.7979 33.3775 36.8659 33.3832 36.9281 33.4076L37.9225 33.8668C37.9992 33.8919 38.0808 33.8979 38.1604 33.8845C38.24 33.8711 38.315 33.8385 38.3792 33.7896L38.8395 33.1798L42.2793 28.7715C42.4303 28.5401 42.3529 28.2352 42.0472 28.2352L41.3254 28.0735C41.1707 28.0735 41.0971 27.8458 41.1707 27.7062L42.3934 26.2588C42.5628 26.1045 42.4855 25.8694 42.3345 25.8694Z" fill="white"/>
<path d="M30.87 34.7962C30.7926 34.7191 30.719 34.7962 30.719 34.8734L31.0873 35.8616V36.093L30.7816 37.3861C30.7764 37.428 30.7806 37.4705 30.794 37.5106C30.8074 37.5506 30.8295 37.5872 30.8589 37.6175L31.776 38.3008C31.8183 38.3378 31.8726 38.3581 31.9288 38.3581C31.985 38.3581 32.0393 38.3378 32.0816 38.3008L33.076 37.4632C33.1057 37.434 33.1417 37.4119 33.1813 37.3985C33.2208 37.3851 33.2629 37.3809 33.3043 37.3861L34.376 37.2355C34.4497 37.2355 34.4497 37.1583 34.376 37.0812L30.87 34.7962Z" fill="white"/>
<path d="M30.5643 38.0729C30.5513 38.0547 30.5342 38.0399 30.5143 38.0296C30.4945 38.0194 30.4724 38.0141 30.4501 38.0141C30.4277 38.0141 30.4057 38.0194 30.3858 38.0296C30.366 38.0399 30.3489 38.0547 30.3359 38.0729L29.5699 38.4403C29.5599 38.4403 29.55 38.4423 29.5408 38.4462C29.5316 38.4501 29.5234 38.4559 29.5165 38.4631C29.5096 38.4703 29.5042 38.4788 29.5008 38.4882C29.4973 38.4975 29.4957 38.5075 29.4962 38.5174L27.8132 42.6318H27.8905L28.2588 42.4812V42.5547L27.0361 44.5384C27.0361 44.6156 27.0361 44.6156 27.1098 44.6156L31.3892 40.2697C31.4665 40.2697 31.4665 40.1926 31.4665 40.1154L31.5439 38.9729C31.5439 38.8958 31.5439 38.8223 31.4665 38.8223L30.5643 38.0729Z" fill="white"/>
<path d="M26.2478 70.0001L24.5537 66.8371L27.5 64.7983L28.0671 65.5881L27.1354 66.2163C26.9762 66.3304 26.8102 66.4347 26.6382 66.5285C26.4827 66.6167 26.3201 66.6917 26.152 66.7526L29.3193 67.5167L29.102 68.4131L25.9274 67.6453C26.0107 67.7306 26.0883 67.8215 26.1594 67.9171C26.2294 68.009 26.2957 68.1082 26.362 68.2147L26.5645 68.5821L27.1022 69.5666L26.2478 70.0001Z" fill="#FFCD1E"/>
<path d="M12.3711 57.914C12.8757 57.3373 13.6785 57.2785 14.3967 57.914L15.8698 59.2035L12.9235 62.5574L11.7524 61.5031C10.9864 60.8345 10.7065 60.1329 11.2442 59.5157C11.36 59.3707 11.516 59.2628 11.6928 59.2053C11.8695 59.1479 12.0593 59.1434 12.2385 59.1924C12.1064 58.9978 12.0472 58.763 12.0714 58.5291C12.0957 58.2953 12.2018 58.0775 12.3711 57.914ZM13.4244 60.7133L12.8278 60.1953C12.4595 59.8684 12.1428 59.7765 11.9513 59.9969C11.7598 60.2174 11.8923 60.5076 12.2717 60.8345L12.8646 61.3525L13.4244 60.7133ZM12.9456 58.5385C12.6842 58.8398 12.8241 59.2071 13.2366 59.5671L13.9142 60.1549L14.6839 59.2769L14.0063 58.6891C13.5938 58.3291 13.2108 58.2336 12.9456 58.5385Z" fill="white"/>
<path d="M5.73474 54.8503L7.76766 53.3074C8.70309 52.5947 9.77479 52.6094 10.4635 53.5094C11.1522 54.4095 10.8796 55.4454 9.9442 56.1544L7.91128 57.6973L7.39938 57.0287L9.5133 55.4197C9.62743 55.3504 9.72569 55.258 9.80172 55.1484C9.87775 55.0388 9.92987 54.9146 9.95468 54.7836C9.97949 54.6527 9.97646 54.518 9.94576 54.3883C9.91506 54.2586 9.85739 54.1368 9.77649 54.0307C9.69559 53.9247 9.59325 53.8368 9.47611 53.7727C9.35898 53.7086 9.22965 53.6698 9.09652 53.6587C8.96338 53.6477 8.8294 53.6647 8.70326 53.7085C8.57712 53.7524 8.46163 53.8223 8.36427 53.9135L6.24666 55.5189L5.73474 54.8503Z" fill="white"/>
<path d="M7.83042 49.6594L3.88246 51.735L3.4884 51.0003L7.44373 48.9137L7.83042 49.6594Z" fill="white"/>
<path d="M4.52667 43.9764L5.32953 43.7009L6.19131 46.1879L1.96713 47.6573L1.69092 46.8601L5.10856 45.6846L4.52667 43.9764Z" fill="white"/>
<path d="M1.91942 37.5845C3.14211 37.4155 4.24326 38.1172 4.44582 39.5829L4.64838 41.0524L0.22901 41.6585L0.0301353 40.1891C-0.176102 38.6829 0.700408 37.7498 1.91942 37.5845ZM2.03358 38.4184C1.85447 38.4344 1.68053 38.4868 1.52248 38.5724C1.36442 38.658 1.22558 38.7749 1.1145 38.916C1.00342 39.0571 0.92246 39.2193 0.876581 39.3928C0.830701 39.5662 0.820878 39.7472 0.847719 39.9246L0.950837 40.696L3.69085 40.3287L3.58404 39.5609C3.56223 39.3829 3.50438 39.2112 3.41398 39.0563C3.32359 38.9013 3.20255 38.7663 3.05822 38.6594C2.91389 38.5526 2.74928 38.4761 2.57441 38.4347C2.39953 38.3932 2.21803 38.3877 2.04094 38.4184H2.03358Z" fill="white"/>
<path d="M0.645087 26.604L1.48108 26.7693L1.25275 27.9082L4.79929 28.6135L4.63356 29.44L1.08702 28.7347L0.858685 29.8698L0.0263672 29.7045L0.645087 26.604Z" fill="white"/>
<path d="M3.08302 19.8485L7.20039 21.5714L6.87263 22.3502L5.20432 21.6522L4.46776 23.4008L6.13607 24.0988L5.80829 24.8739L1.69092 23.151L2.01868 22.3722L3.68332 23.0702L4.41988 21.3216L2.75524 20.6236L3.08302 19.8485Z" fill="white"/>
<path d="M6.12522 16.318L6.91702 16.8544L7.80458 15.5466L8.50799 16.0205L7.62044 17.3283L8.41224 17.8646L9.48025 16.296L10.1837 16.7699L8.64057 19.0365L4.95776 16.5384L6.49717 14.2719L7.20059 14.7494L6.12522 16.318Z" fill="white"/>
<path d="M15.0266 11.6416L12.2939 8.1186L14.4668 6.44345L14.9861 7.11204L13.4835 8.27289L14.0727 9.02965L15.3249 8.05982L15.8479 8.73209L14.5883 9.70559L15.6932 11.1309L15.0266 11.6416Z" fill="white"/>
<path d="M20.6245 2.94617L21.7698 5.22011C22.2965 6.26708 22.0866 7.31405 21.0738 7.82468C20.061 8.3353 19.0887 7.87611 18.5621 6.82547L17.4167 4.56254L18.1717 4.19518L19.365 6.56097C19.422 6.67265 19.5006 6.77202 19.5962 6.85342C19.6917 6.93481 19.8024 6.99663 19.922 7.03535C20.0415 7.07407 20.1675 7.08892 20.2927 7.07907C20.418 7.06922 20.5401 7.03484 20.6521 6.97792C20.7641 6.92099 20.8637 6.84263 20.9453 6.7473C21.0269 6.65197 21.0889 6.54154 21.1277 6.42232C21.1665 6.30309 21.1814 6.17741 21.1715 6.05245C21.1616 5.92748 21.1272 5.80568 21.0701 5.694L19.8769 3.32455L20.6245 2.94617Z" fill="white"/>
<path d="M26.9626 0.867004L27.1872 1.68254L26.0824 1.99112L27.0436 5.47L26.226 5.69041L25.2685 2.21521L24.1636 2.52379L23.9353 1.70458L26.9626 0.867004Z" fill="white"/>
<path d="M34.0042 0L34.1884 2.53844C34.2731 3.70664 33.6728 4.59197 32.5422 4.67279C31.4116 4.75361 30.7008 3.96379 30.6087 2.79192L30.4246 0.257149L31.2679 0.194699L31.4558 2.83967C31.4494 2.97452 31.4717 3.10918 31.5213 3.23478C31.5709 3.36038 31.6466 3.47407 31.7435 3.56835C31.8403 3.66262 31.9561 3.73535 32.0832 3.78173C32.2103 3.82811 32.3458 3.84709 32.4808 3.83741C32.6158 3.82774 32.7472 3.78964 32.8664 3.72561C32.9855 3.66158 33.0897 3.57309 33.172 3.46597C33.2544 3.35885 33.313 3.23553 33.3441 3.10415C33.3752 2.97277 33.378 2.8363 33.3524 2.70375L33.1609 0.0587772L34.0042 0Z" fill="white"/>
<path d="M39.484 4.83847L38.6849 3.23679L38.1803 3.17434L37.9925 4.64378L37.1528 4.53357L37.7237 0.125275L39.2962 0.327323C40.4416 0.474266 40.8909 1.16122 40.7693 2.01717C40.7339 2.32904 40.5993 2.62142 40.3853 2.85146C40.1712 3.08151 39.889 3.23715 39.5798 3.29557L40.4931 4.9744L39.484 4.83847ZM38.2908 2.3331L39.1305 2.43963C39.2193 2.45889 39.3111 2.46023 39.4005 2.44356C39.4898 2.42689 39.5749 2.39255 39.6508 2.34257C39.7266 2.29259 39.7917 2.22798 39.8421 2.15253C39.8925 2.07709 39.9273 1.99234 39.9444 1.90329C39.9559 1.81119 39.9476 1.71771 39.9201 1.62905C39.8926 1.5404 39.8464 1.45861 39.7848 1.38911C39.7231 1.31961 39.6473 1.264 39.5625 1.22597C39.4776 1.18795 39.3856 1.16838 39.2925 1.16857L38.4529 1.06204L38.2908 2.3331Z" fill="white"/>
<path d="M45.0562 2.44657L44.7579 3.35395L46.2605 3.84988L45.9953 4.65439L44.4927 4.15846L44.1944 5.06584L45.999 5.66095L45.7449 6.46547L43.1411 5.60585L44.5369 1.37756L47.1443 2.23351L46.8792 3.04169L45.0562 2.44657Z" fill="white"/>
<path d="M56.9037 6.6861L57.1468 10.2642L53.6076 10.9107L53.4161 9.95191L54.5209 9.76088C54.7235 9.72415 54.9187 9.69476 55.1028 9.68006C55.2805 9.66536 55.4591 9.66536 55.6368 9.68006L53.0588 7.68164L53.626 6.94692L56.204 8.94535C56.1624 8.83408 56.1291 8.71989 56.1045 8.6037C56.0763 8.48277 56.0567 8.36002 56.0456 8.23635C56.0456 8.11512 56.0161 7.97552 56.0051 7.82858L55.9204 6.72651L56.9037 6.6861Z" fill="#FFCD1E"/>
<path d="M62.9068 22.8864L63.8348 21.3582L63.6212 20.899L62.2733 21.5235L61.905 20.7594L65.9561 18.8858L66.6264 20.3185C67.1125 21.3618 66.77 22.1076 65.9893 22.4712C65.7056 22.6079 65.3855 22.6502 65.076 22.592C64.7664 22.5338 64.4837 22.3782 64.2694 22.148L63.334 23.8158L62.9068 22.8864ZM64.3799 20.5426L64.7482 21.3067C64.7792 21.3922 64.8271 21.4706 64.8891 21.5373C64.9511 21.6039 65.0258 21.6575 65.1089 21.6949C65.192 21.7322 65.2818 21.7525 65.3729 21.7546C65.464 21.7567 65.5546 21.7406 65.6394 21.7071C65.7224 21.6671 65.7961 21.61 65.8553 21.5395C65.9146 21.469 65.9582 21.3868 65.9833 21.2983C66.0084 21.2097 66.0143 21.1169 66.0007 21.0259C65.9872 20.9349 65.9544 20.8478 65.9046 20.7704L65.5363 20.0063L64.3799 20.5426Z" fill="white"/>
<path d="M67.3443 29.9913C66.8962 30.0893 66.4291 30.0528 66.0018 29.8864C65.5744 29.72 65.206 29.4312 64.943 29.0564C64.6799 28.6815 64.5339 28.2374 64.5234 27.7799C64.513 27.3225 64.6385 26.8721 64.8841 26.4857C65.1298 26.0993 65.4846 25.794 65.9039 25.6083C66.3231 25.4227 66.7881 25.365 67.2402 25.4425C67.6923 25.52 68.1113 25.7292 68.4444 26.0438C68.7775 26.3584 69.0098 26.7643 69.1121 27.2104C69.2472 27.8129 69.1368 28.4444 68.8054 28.9659C68.4739 29.4873 67.9483 29.8562 67.3443 29.9913V29.9913ZM67.1565 29.1684C67.4393 29.1009 67.6957 28.9515 67.8935 28.739C68.0913 28.5265 68.2216 28.2604 68.2681 27.9741C68.3145 27.6879 68.2751 27.3943 68.1546 27.1304C68.0341 26.8665 67.8381 26.644 67.5911 26.491C67.3442 26.338 67.0574 26.2613 66.7668 26.2706C66.4762 26.2798 66.1949 26.3746 65.9583 26.5431C65.7216 26.7115 65.5402 26.946 65.4369 27.2171C65.3336 27.4881 65.313 27.7836 65.3777 28.0663C65.4202 28.2563 65.5002 28.436 65.6129 28.595C65.7257 28.7539 65.869 28.8889 66.0345 28.9921C66.2 29.0954 66.3844 29.1648 66.577 29.1963C66.7696 29.2278 66.9666 29.2208 67.1565 29.1757V29.1684Z" fill="white"/>
<path d="M66.6482 36.4162L65.8822 36.7505C65.5323 36.3565 65.3339 35.8514 65.3224 35.3252C65.3176 35.0189 65.3733 34.7146 65.4864 34.4297C65.5994 34.1448 65.7676 33.885 65.9813 33.6649C66.1951 33.4449 66.4502 33.269 66.7321 33.1474C67.0139 33.0257 67.3171 32.9606 67.6242 32.9557C67.9313 32.9509 68.2363 33.0065 68.5219 33.1192C68.8075 33.232 69.068 33.3998 69.2886 33.613C69.5092 33.8262 69.6855 34.0807 69.8075 34.3618C69.9295 34.643 69.9948 34.9454 69.9996 35.2517C70.0076 35.7768 69.8273 36.2875 69.4914 36.6918L68.7143 36.3832C68.9993 36.0874 69.1555 35.6913 69.1489 35.2811C69.1345 35.043 69.0622 34.8119 68.9382 34.6078C68.8142 34.4038 68.6423 34.233 68.4372 34.1101C68.2322 33.9872 68.0003 33.9159 67.7615 33.9025C67.5227 33.889 67.2842 33.9338 67.0666 34.0328C66.849 34.1319 66.6589 34.2824 66.5127 34.4712C66.3664 34.66 66.2685 34.8815 66.2273 35.1165C66.1861 35.3515 66.2029 35.593 66.2763 35.8201C66.3496 36.0472 66.4773 36.2531 66.6482 36.4199V36.4162Z" fill="white"/>
<path d="M64.457 42.9479L64.667 41.9009L66.9061 40.6409L64.991 40.2735L65.1568 39.447L69.5356 40.3103L69.3699 41.1368L67.558 40.7695L69.0679 42.665L68.858 43.7083L67.1344 41.4381L64.457 42.9479Z" fill="white"/>
<path d="M66.6851 47.5435L65.7975 47.1761L65.1972 48.6456L64.4128 48.326L65.0094 46.8565L64.1255 46.4892L63.389 48.2415L62.6008 47.9219L63.6357 45.3871L67.7715 47.0696L66.7329 49.6044L65.9485 49.2848L66.6851 47.5435Z" fill="white"/>
<path d="M63.4223 55.3609L62.7225 54.8906L63.3523 53.9171L60.314 51.9628L60.7706 51.2575L63.8089 53.2118L64.4424 52.2383L65.1569 52.6975L63.4223 55.3609Z" fill="white"/>
<path d="M56.5942 58.4467C56.016 57.8957 55.9792 57.0177 56.7931 56.1728C57.0207 55.9254 57.2973 55.7279 57.6054 55.5925C57.9134 55.4572 58.2463 55.3871 58.5829 55.3866L58.826 56.2058C58.5617 56.1983 58.2988 56.2446 58.0531 56.3419C57.8074 56.4391 57.5842 56.5854 57.397 56.7716C56.9919 57.194 56.9146 57.5871 57.1392 57.8039C57.3639 58.0206 57.699 57.8994 58.1631 57.543C59.1758 56.7679 59.8166 56.7863 60.3028 57.2528C60.7889 57.7194 60.8957 58.6488 60.1297 59.457C59.7505 59.8641 59.2391 60.1244 58.686 60.1917L58.4061 59.4312C58.8266 59.3785 59.2164 59.1841 59.511 58.8802C59.824 58.5569 60.0045 58.1859 59.7467 57.9361C59.4889 57.6863 59.2679 57.8332 58.7449 58.219C57.9752 58.7737 57.2829 59.108 56.5942 58.4467Z" fill="white"/>
<path d="M54.9518 62.7006L54.3994 61.9218L53.1068 62.8329L52.6169 62.1422L53.9096 61.2312L53.3572 60.4524L51.8031 61.5544L51.3132 60.8601L53.5561 59.2805L56.134 62.9137L53.8912 64.497L53.4014 63.8027L54.9518 62.7006Z" fill="white"/>
<path d="M46.6838 64.1737L48.3963 63.4133L48.3521 62.5059L49.2213 62.1386L49.3575 66.9546L48.6578 67.2632L45.1702 63.9313L46.0356 63.5639L46.6838 64.1737ZM47.3246 64.8166L48.5326 66.0215L48.4442 64.3207L47.3246 64.8166Z" fill="white"/>
<path d="M41.3843 69.5042L41.1854 68.6777L42.316 68.4095L41.4801 64.9012L42.3013 64.7065L43.1373 68.2148L44.2679 67.9466L44.4668 68.7695L41.3843 69.5042Z" fill="white"/>
</svg>
